<svg xmlns="http://www.w3.org/2000/svg" viewBox="0 0 400 51.38" fill="currentColor">
  <path d="M49.78,39.77V.41h16.12c2.98,0,5.54.56,7.7,1.69,2.16,1.13,3.82,2.71,4.99,4.74s1.76,4.41,1.76,7.12-.59,5.05-1.78,7.07-2.88,3.58-5.07,4.69-4.8,1.66-7.83,1.66h-10.15v-7.48h8.69c1.43,0,2.62-.25,3.59-.75.97-.5,1.7-1.2,2.21-2.09.5-.89.75-1.92.75-3.1s-.25-2.26-.75-3.14-1.24-1.56-2.21-2.05c-.97-.48-2.17-.73-3.59-.73h-5.07v31.73h-9.36Z"/>
  <path d="M92.21,40.3c-1.88,0-3.56-.32-5.02-.96s-2.61-1.6-3.43-2.87c-.83-1.27-1.24-2.87-1.24-4.81,0-1.62.29-2.99.86-4.1s1.36-2.01,2.38-2.71c1.01-.7,2.18-1.23,3.5-1.6s2.73-.62,4.23-.74c1.67-.14,3.02-.29,4.04-.46,1.02-.17,1.76-.41,2.22-.74s.69-.78.69-1.36v-.13c0-.65-.16-1.21-.48-1.68-.32-.47-.77-.82-1.36-1.07-.59-.25-1.31-.37-2.15-.37s-1.59.13-2.23.38c-.64.26-1.17.61-1.59,1.07-.41.46-.69,1-.83,1.61l-8.38-.85c.33-1.76,1.06-3.3,2.18-4.61,1.12-1.31,2.6-2.33,4.45-3.05s4.03-1.08,6.55-1.08c1.87,0,3.59.22,5.18.65,1.59.43,2.96,1.07,4.14,1.9,1.17.84,2.08,1.86,2.72,3.08s.96,2.62.96,4.2v19.76h-8.72v-4.1h-.21c-.53,1-1.19,1.85-1.99,2.54-.8.69-1.74,1.21-2.81,1.56-1.07.35-2.29.53-3.65.53h-.01ZM95.01,34.23c1.02,0,1.95-.21,2.79-.62.84-.41,1.5-.99,1.98-1.72.48-.73.73-1.57.73-2.52v-2.77c-.25.14-.56.27-.95.38-.39.11-.81.22-1.27.33s-.93.2-1.41.28-.96.15-1.41.22c-.88.12-1.64.33-2.27.63s-1.12.68-1.45,1.14c-.33.46-.5,1.01-.5,1.66s.16,1.18.49,1.63c.33.45.77.79,1.33,1.02.56.23,1.22.34,1.96.34h-.02Z"/>
  <path d="M115.46,50.82V10.61h9.09v4.76h.26c.42-.92.99-1.77,1.72-2.55.72-.78,1.63-1.42,2.71-1.9s2.37-.73,3.87-.73c2.13,0,4.09.56,5.88,1.68,1.79,1.12,3.22,2.79,4.31,5.02,1.08,2.23,1.62,5.01,1.62,8.34s-.52,5.98-1.57,8.22-2.47,3.93-4.25,5.09c-1.79,1.15-3.81,1.73-6.06,1.73-1.43,0-2.68-.24-3.77-.71-1.08-.48-1.99-1.1-2.72-1.86-.73-.77-1.3-1.62-1.7-2.55h-.19v15.69h-9.19v-.02ZM130.02,33.04c1.18,0,2.18-.33,2.99-.98.81-.65,1.43-1.56,1.86-2.73.43-1.17.65-2.55.65-4.14s-.22-2.96-.65-4.12-1.05-2.06-1.86-2.71c-.81-.64-1.81-.96-2.99-.96s-2.17.32-3.01.95c-.85.63-1.49,1.53-1.94,2.7-.45,1.16-.67,2.55-.67,4.15s.23,2.96.69,4.14c.46,1.17,1.11,2.08,1.94,2.73.84.65,1.84.98,3,.98h0Z"/>
  <path d="M163.26,40.36c-3.03,0-5.65-.62-7.87-1.85s-3.92-2.98-5.11-5.23-1.78-4.92-1.78-8.01.59-5.62,1.78-7.89c1.19-2.26,2.87-4.03,5.05-5.3,2.18-1.27,4.72-1.9,7.62-1.9,2.08,0,3.98.33,5.72.99,1.73.66,3.24,1.63,4.52,2.91s2.26,2.84,2.96,4.68c.7,1.84,1.04,3.95,1.04,6.33v2.35h-25.52v-5.39h21.16l-4.28,1.24c0-1.34-.21-2.49-.63-3.45-.42-.96-1.04-1.7-1.85-2.21-.81-.51-1.81-.77-3.01-.77s-2.18.26-3.01.78-1.46,1.25-1.89,2.18-.65,2.04-.65,3.33v3.88c0,1.44.24,2.66.73,3.66.48,1,1.18,1.74,2.07,2.25.9.5,1.95.75,3.14.75.85,0,1.61-.12,2.3-.36s1.27-.58,1.76-1.03c.48-.45.85-1,1.1-1.65l8.19,1.06c-.46,1.73-1.3,3.24-2.52,4.53-1.22,1.29-2.77,2.3-4.64,3.03-1.87.72-3.99,1.08-6.37,1.08h-.01Z"/>
  <path d="M181.78,39.77V10.61h8.9v5.28h.26c.53-1.92,1.39-3.33,2.59-4.24s2.63-1.36,4.31-1.36c.44,0,.89.02,1.33.07.45.04.87.11,1.25.2v7.9c-.42-.12-.99-.22-1.7-.28-.71-.06-1.36-.09-1.94-.09-1.13,0-2.13.25-3.01.74-.88.49-1.57,1.18-2.06,2.07-.49.89-.74,1.94-.74,3.16v15.72h-9.19,0Z"/>
  <path d="M213.41,39.77L202.55.41h3.78l7,26.18c.32,1.18.62,2.37.91,3.58.29,1.21.58,2.42.86,3.65.28,1.22.55,2.47.79,3.74h-.48c.25-1.27.51-2.51.78-3.74.27-1.22.56-2.44.86-3.65.3-1.21.61-2.4.92-3.58L224.98.41h4.39l6.95,26.18c.32,1.18.62,2.37.92,3.58s.59,2.42.87,3.65c.28,1.22.56,2.47.82,3.74h-.55c.26-1.27.54-2.51.82-3.74.28-1.22.57-2.44.87-3.65.3-1.21.6-2.4.9-3.58L247.97.41h3.83l-10.91,39.37h-4.47l-7.16-26.42c-.46-1.64-.89-3.35-1.31-5.14-.41-1.79-.81-3.73-1.2-5.83h.79c-.39,2.01-.78,3.9-1.18,5.67-.4,1.77-.83,3.54-1.31,5.3l-7.16,26.42h-4.49.01Z"/>
  <path d="M266.04,40.38c-2.54,0-4.78-.64-6.74-1.92s-3.48-3.05-4.58-5.32-1.65-4.88-1.65-7.82.55-5.63,1.65-7.9c1.1-2.27,2.63-4.05,4.58-5.32,1.96-1.28,4.2-1.92,6.74-1.92s4.83.64,6.78,1.92,3.47,3.06,4.57,5.34,1.65,4.91,1.65,7.89-.55,5.55-1.65,7.82-2.62,4.05-4.57,5.32c-1.95,1.28-4.21,1.92-6.78,1.92h0ZM266.04,37.19c2.01,0,3.71-.53,5.11-1.6s2.47-2.5,3.21-4.29c.74-1.8,1.11-3.79,1.11-5.97s-.37-4.23-1.11-6.04-1.81-3.24-3.22-4.31-3.11-1.6-5.1-1.6-3.66.54-5.06,1.61c-1.4,1.07-2.47,2.51-3.21,4.31s-1.11,3.8-1.11,6.02.37,4.2,1.11,5.98c.74,1.79,1.81,3.21,3.21,4.28s3.09,1.6,5.06,1.6h0Z"/>
  <path d="M286.04,39.77V10.61h3.41v4.6h.24c.58-1.5,1.59-2.7,3.01-3.62,1.43-.92,3.06-1.37,4.91-1.37.28,0,.59,0,.91.03.33.02.59.03.81.03v3.57c-.12-.04-.38-.07-.78-.12-.4-.04-.83-.07-1.31-.07-1.46,0-2.77.32-3.94.95-1.16.63-2.07,1.52-2.73,2.64-.66,1.13-.99,2.44-.99,3.94v18.6h-3.54v-.02Z"/>
  <path d="M305.17,39.77V.41h3.54v39.37h-3.54ZM308.39,28.81v-4.54h.66l13.58-13.66h4.52l-13.45,13.53-.4.05-4.91,4.62h0ZM323.46,39.77l-11.86-14.95,2.54-2.46,13.87,17.41h-4.55Z"/>
  <path d="M334.9,5c-.7,0-1.31-.25-1.82-.74-.51-.49-.77-1.08-.77-1.77s.26-1.27.77-1.76c.51-.48,1.12-.73,1.82-.73s1.31.24,1.82.73c.51.48.77,1.07.77,1.76s-.26,1.28-.77,1.77c-.51.49-1.12.74-1.82.74ZM333.13,39.77V10.61h3.54v29.17h-3.54Z"/>
  <path d="M348.77,21.7v18.07h-3.54V10.61h3.41l.03,6.82h-.63c.81-2.54,2.08-4.38,3.8-5.52,1.73-1.14,3.71-1.72,5.94-1.72,1.99,0,3.75.42,5.27,1.26s2.72,2.05,3.58,3.65c.86,1.59,1.29,3.56,1.29,5.91v18.79h-3.54v-18.52c0-2.43-.68-4.34-2.03-5.73-1.36-1.39-3.17-2.09-5.44-2.09-1.53,0-2.92.33-4.15.98-1.23.65-2.21,1.59-2.92,2.83-.71,1.23-1.07,2.72-1.07,4.47v-.04Z"/>
  <path d="M387.79,51.37c-2.03,0-3.82-.27-5.38-.82s-2.85-1.31-3.88-2.29-1.8-2.12-2.31-3.42l3.09-1.4c.39.85.94,1.63,1.65,2.36s1.63,1.32,2.75,1.76,2.48.66,4.08.66c2.64,0,4.75-.67,6.33-1.99,1.58-1.33,2.36-3.34,2.36-6.04v-6.31h-.29c-.44.99-1.05,1.92-1.84,2.79-.78.87-1.77,1.59-2.97,2.14s-2.64.83-4.33.83c-2.34,0-4.43-.59-6.26-1.76-1.83-1.17-3.27-2.84-4.31-5.01-1.04-2.17-1.56-4.75-1.56-7.74s.52-5.59,1.55-7.83,2.46-3.99,4.29-5.24c1.83-1.25,3.95-1.88,6.34-1.88,1.71,0,3.17.3,4.37.9,1.21.6,2.2,1.36,2.99,2.29.78.92,1.39,1.87,1.81,2.84h.29v-5.6h3.44v29.72c0,2.52-.53,4.6-1.59,6.24s-2.51,2.85-4.35,3.63c-1.84.78-3.93,1.18-6.28,1.18h.01ZM387.58,36.45c1.87,0,3.47-.46,4.81-1.37,1.34-.92,2.37-2.22,3.09-3.92.72-1.7,1.08-3.72,1.08-6.06s-.35-4.31-1.06-6.06-1.73-3.13-3.08-4.12c-1.35-.99-2.96-1.49-4.85-1.49s-3.53.51-4.89,1.52c-1.36,1.01-2.39,2.4-3.1,4.15s-1.07,3.76-1.07,6.01.36,4.26,1.08,5.97,1.76,3.03,3.1,3.98c1.35.94,2.97,1.41,4.87,1.41l.02-.02Z"/>
  <path d="M40.11,23.38h-6.98c-.96,0-1.74.78-1.74,1.74v3.46c0,.96-.78,1.74-1.74,1.74H12.21c-.96,0-1.74-.78-1.74-1.74v-3.46c0-.96-.78-1.74-1.74-1.74H1.74c-.96,0-1.74.78-1.74,1.74v12.13c0,.96.78,1.74,1.74,1.74h38.37c.96,0,1.74-.78,1.74-1.74v-12.13c0-.96-.78-1.74-1.74-1.74Z"/>
</svg>
